<svg
  width="178"
  height="178"
  viewBox="0 0 178 178"
  fill="none"
  xmlns="http://www.w3.org/2000/svg"
>
  <path
    d="M89.0137 177.337C137.689 177.337 177.148 137.878 177.148 89.2032C177.148 40.5282 137.689 1.06934 89.0137 1.06934C40.3388 1.06934 0.879883 40.5282 0.879883 89.2032C0.879883 137.878 40.3388 177.337 89.0137 177.337Z"
    fill="#F2F2F2"
  />
  <path
    d="M92.6056 98.1931C108.478 98.1931 121.344 85.3263 121.344 69.4542C121.344 53.5822 108.478 40.7153 92.6056 40.7153C76.7335 40.7153 63.8667 53.5822 63.8667 69.4542C63.8667 85.3263 76.7335 98.1931 92.6056 98.1931Z"
    fill="#CCCCCC"
  />
  <path
    d="M117.909 50.4688C117.909 50.4688 125.392 36.1644 108.93 34.8639C108.93 34.8639 94.8958 22.1334 80.5914 32.5366C80.5914 32.5366 72.789 32.5366 68.5223 41.366C68.5223 41.366 62.3858 39.0386 61.0372 45.2672C61.0372 45.2672 56.5469 58.2713 61.0372 69.975C65.5275 81.6786 67.019 82.979 67.019 82.979C67.019 82.979 63.8685 68.4554 81.8285 67.155C99.7885 65.8546 116.265 54.6034 117.762 68.9079C119.259 83.2123 120.904 76.7505 120.904 76.7505C120.904 76.7505 135.12 56.3207 117.909 50.4688Z"
    fill="#CCCCCC"
  />
  <path
    d="M154.807 147.807C139.538 165.18 118.049 175.853 94.9798 177.52C71.9103 179.187 49.1103 171.716 31.502 156.718L39.0614 135.625C40.7697 131.878 43.4656 128.667 46.8599 126.336C50.2542 124.006 54.219 122.643 58.329 122.394L63.1382 122.098L74.6055 112.208C74.6055 112.208 105.504 111.105 105.045 110.577L123.761 121.834L123.746 121.757L131.103 122.207C135.213 122.455 139.179 123.818 142.573 126.149C145.968 128.48 148.663 131.691 150.371 135.438L154.807 147.807Z"
    fill="#CCCCCC"
  />
  <path
    d="M59.3745 78.902V78.9344C59.3252 78.8153 59.2925 78.69 59.2773 78.562L59.3745 78.902Z"
    fill="#F2F2F2"
  />
  <path
    d="M59.3742 78.9346C59.4551 79.2745 59.5523 79.6146 59.6494 79.9384C59.5165 79.9747 59.3813 80.0017 59.2446 80.0193L59.3742 78.9346Z"
    fill="#F2F2F2"
  />
  <path
    d="M177.147 89.0214C177.144 111.795 168.324 133.683 152.538 150.097C136.752 166.511 115.225 176.176 92.4688 177.067V0.975586C115.226 1.86205 136.756 11.5263 152.543 27.9413C168.33 44.3562 177.148 66.2467 177.147 89.0214Z"
    fill="#0077B6"
  />
  <path
    d="M59.2773 78.562L59.3745 78.902V78.9344C59.3252 78.8153 59.2925 78.69 59.2773 78.562Z"
    fill="#FFB6B6"
  />
  <path
    d="M114.714 71.8105C114.72 74.1366 114.431 76.454 113.856 78.7079V78.7241C112.562 83.8078 109.875 88.4292 106.096 92.0678C102.317 95.7064 97.5972 98.2177 92.4683 99.3188V44.2861C98.7643 45.6394 104.406 49.1094 108.454 54.1179C112.502 59.1263 114.712 65.3707 114.714 71.8105Z"
    fill="#A0616A"
  />
  <path
    d="M155.127 147.988C147.26 156.962 137.646 164.238 126.873 169.371C116.1 174.504 104.393 177.387 92.4683 177.844V111.672C99.3494 111.348 105.583 111.009 105.372 110.766L124.089 122.018L124.073 121.937L131.423 122.391C135.534 122.635 139.501 123.996 142.896 126.326C146.291 128.657 148.986 131.87 150.69 135.619L154.949 147.486L155.127 147.988Z"
    fill="#3F3D56"
  />
  <path
    d="M59.3742 78.9346C59.4551 79.2745 59.5523 79.6146 59.6494 79.9384C59.5165 79.9747 59.3813 80.0017 59.2446 80.0193L59.3742 78.9346Z"
    fill="#2F2E41"
  />
  <path
    d="M113.937 80.068C113.905 79.6146 113.889 79.1774 113.856 78.7241V78.7079C113.763 75.5946 113.306 72.5029 112.496 69.4953C111.444 66.0953 109.469 62.8409 106.473 61.0275C101.988 58.3075 95.6902 59.7808 92.4683 63.8609V29.9087C95.5176 30.7055 98.42 31.9845 101.066 33.6974C108.476 38.5032 113.877 45.8499 116.253 54.3569C118.591 62.9274 117.77 72.0532 113.937 80.068Z"
    fill="#2F2E41"
  />
</svg>
