<svg
  width="209"
  height="510"
  viewBox="0 0 209 510"
  fill="none"
  xmlns="http://www.w3.org/2000/svg"
>
  <path
    d="M48.7852 80.5198L50.291 72.9905C50.291 72.9905 72.4404 65.4611 74.9185 80.5198H48.7852Z"
    fill="#E6E6E6"
  />
  <path
    d="M91.294 495.098L105.815 495.097L112.723 439.088L91.291 439.089L91.294 495.098Z"
    fill="#9F616A"
  />
  <path
    d="M87.5898 490.357L116.187 490.356H116.188C121.021 490.356 125.656 492.276 129.074 495.694C132.492 499.111 134.412 503.746 134.412 508.58V509.172L87.5907 509.174L87.5898 490.357Z"
    fill="#2F2E41"
  />
  <path
    d="M21.294 495.098L35.815 495.097L42.723 439.088L21.291 439.089L21.294 495.098Z"
    fill="#9F616A"
  />
  <path
    d="M17.5898 490.357L46.1867 490.356H46.1879C51.0211 490.356 55.6563 492.276 59.0739 495.694C62.4916 499.111 64.4117 503.746 64.4121 508.58V509.172L17.5907 509.174L17.5898 490.357Z"
    fill="#2F2E41"
  />
  <path
    d="M27.7037 112.143L11.1387 110.637L0.597656 160.331L2.10365 205.507L18.6687 265.742L41.2567 252.189L29.2097 190.448L27.7037 112.143Z"
    fill="#2F2E41"
  />
  <path
    d="M17.2172 260.471L20.9252 292.094L24.4082 365.882L16.4082 475.84L45.0192 474.305L59.0432 359.859L67.6072 307.153L79.6542 367.388L87.1842 480.328L116.548 477.975V366.991L117.301 286.071L106.76 254.448L17.2172 260.471Z"
    fill="#2F2E41"
  />
  <path
    d="M78.9028 82.0257C78.9028 82.0257 68.3617 66.967 48.7854 77.5081L39.7502 89.555L11.1387 110.637L17.1622 181.413L9.63281 270.259L116.55 268.754L98.4792 179.907V85.0374L78.9028 82.0257Z"
    fill="#2F2E41"
  />
  <path
    opacity="0.25"
    d="M20.927 135.632L12.293 238.871L23.186 182.919L20.927 135.632Z"
    fill="black"
  />
  <path
    d="M200.652 222.192C199.115 222.714 197.482 222.893 195.868 222.716C194.254 222.539 192.698 222.01 191.311 221.166C189.923 220.323 188.738 219.186 187.837 217.834C186.937 216.483 186.344 214.951 186.1 213.346L161.461 207.257L161.509 191.381L196.183 200.469C198.907 200.238 201.621 201.013 203.811 202.649C206.001 204.285 207.515 206.668 208.066 209.345C208.617 212.023 208.167 214.81 206.8 217.177C205.434 219.545 203.246 221.329 200.652 222.192Z"
    fill="#9F616A"
  />
  <path
    d="M174.887 191.191L170.744 214.927L181.128 216.739L185.271 193.004L174.887 191.191Z"
    fill="#E6E6E6"
  />
  <path
    d="M76.648 60.926C91.3021 52.9154 96.6876 34.542 88.677 19.888C80.6663 5.23394 62.293 -0.151616 47.639 7.85901C32.9849 15.8696 27.5994 34.243 35.61 48.897C43.6206 63.5511 61.994 68.9366 76.648 60.926Z"
    fill="#9F616A"
  />
  <path
    d="M64.4024 61.0672C57.0043 62.8433 49.21 61.8066 42.5334 58.1583C35.8568 54.5099 30.7744 48.5104 28.2732 41.325C25.772 34.1395 26.0306 26.2808 28.9987 19.2753C31.9667 12.2697 37.4325 6.61727 44.3345 3.41568C49.6496 1.04348 55.4622 0.000404179 61.2705 0.376464C70.3142 0.851944 79.1041 4.19444 88.157 3.94818L89.4691 6.05734L94.4143 4.85803L95.4739 8.78412L96.7765 8.73904C99.1097 13.075 95.3556 19.2829 90.432 19.2303C88.4826 19.2095 86.6394 18.3974 84.7332 17.9889C82.827 17.5805 80.5822 17.6823 79.2678 19.1219C77.5595 20.9929 78.3032 23.9125 78.6594 26.4209C79.0155 28.9293 78.1259 32.3079 75.5938 32.3898C74.3003 32.4316 73.07 31.504 71.799 31.7479C70.3186 32.0319 69.5701 33.8196 69.7863 35.3114C70.1529 36.7752 70.7509 38.1711 71.5575 39.4464C75.2282 46.7737 72.1287 56.741 64.95 60.6946"
    fill="#2F2E41"
  />
  <path
    d="M91.2915 90.8558L98.479 85.0374C98.479 85.0374 112.985 84.0289 112.723 99.4069L135.933 172.011L180.461 187.785L174.461 218.785L111.461 194.785L79.4609 141.745L91.2915 90.8558Z"
    fill="#2F2E41"
  />
</svg>
