<svg
  width="67"
  height="67"
  viewBox="0 0 67 67"
  fill="none"
  xmlns="http://www.w3.org/2000/svg"
>
  <path
    d="M33.4611 0.902832C26.9389 0.902832 20.5632 2.83686 15.1402 6.46039C9.71723 10.0839 5.49051 15.2342 2.99459 21.2599C0.498656 27.2856 -0.154381 33.9161 1.11803 40.3129C2.39044 46.7098 5.53115 52.5857 10.143 57.1976C14.7549 61.8094 20.6308 64.9501 27.0276 66.2226C33.4245 67.495 40.055 66.842 46.0807 64.346C52.1064 61.8501 57.2567 57.6234 60.8802 52.2004C64.5037 46.7774 66.4378 40.4017 66.4378 33.8795C66.4378 29.549 65.5848 25.2608 63.9276 21.2599C62.2704 17.259 59.8413 13.6237 56.7792 10.5615C53.717 7.49932 50.0817 5.07026 46.0807 3.41302C42.0798 1.75579 37.7916 0.902831 33.4611 0.902832ZM33.4611 10.7958C35.4177 10.7958 37.3305 11.376 38.9574 12.4631C40.5842 13.5502 41.8523 15.0952 42.601 16.9029C43.3498 18.7106 43.5457 20.6998 43.164 22.6188C42.7823 24.5379 41.8401 26.3007 40.4565 27.6842C39.0729 29.0678 37.3102 30.01 35.3911 30.3917C33.4721 30.7734 31.4829 30.5775 29.6752 29.8288C27.8675 29.08 26.3224 27.812 25.2354 26.1851C24.1483 24.5582 23.5681 22.6455 23.5681 20.6888C23.5681 18.065 24.6104 15.5487 26.4657 13.6935C28.321 11.8382 30.8373 10.7958 33.4611 10.7958ZM33.4611 58.4218C29.553 58.404 25.7082 57.433 22.2603 55.593C18.8124 53.753 15.8655 51.0996 13.6751 47.8629C13.8337 41.2676 26.8658 37.637 33.4611 37.637C40.0564 37.637 53.0885 41.2676 53.2471 47.8629C51.0542 51.0971 48.1068 53.7487 44.6594 55.5883C41.2121 57.428 37.3685 58.4006 33.4611 58.4218Z"
    fill="#0077B6"
  />
</svg>
